<?xml version="1.0" standalone="no"?>
<!DOCTYPE svg PUBLIC "-//W3C//DTD SVG 20010904//EN"
 "http://www.w3.org/TR/2001/REC-SVG-20010904/DTD/svg10.dtd">
<svg version="1.0" xmlns="http://www.w3.org/2000/svg"
 width="500.000000pt" height="500.000000pt" viewBox="0 0 500.000000 500.000000"
 preserveAspectRatio="xMidYMid meet">
<metadata>
Created by potrace 1.11, written by Peter Selinger 2001-2013
</metadata>
<g transform="translate(0.000000,500.000000) scale(0.100000,-0.100000)"
fill="#000000" stroke="none">
<path d="M865 4261 c-52 -23 -103 -74 -126 -126 -18 -38 -19 -104 -19 -1385 0
-1281 1 -1347 19 -1385 23 -52 74 -103 126 -126 37 -17 82 -19 698 -19 l657 0
0 -157 c0 -177 9 -211 71 -272 74 -75 15 -71 959 -71 797 0 847 1 885 19 52
23 103 74 126 126 18 38 19 104 19 1385 0 1281 -1 1347 -19 1385 -23 52 -74
103 -126 126 -37 17 -82 19 -697 19 l-658 0 0 158 c0 176 -9 210 -71 271 -74
75 -15 71 -959 71 -797 0 -847 -1 -885 -19z m1710 -60 c52 -23 103 -74 126
-126 15 -32 19 -66 19 -167 l0 -128 -157 0 c-177 0 -211 -9 -272 -71 -71 -70
-71 -69 -71 -511 l0 -397 -52 -3 -53 -3 -3 -77 c-2 -58 -6 -78 -17 -78 -7 0
-20 -3 -29 -6 -12 -5 -16 0 -16 19 0 23 -5 26 -50 32 l-50 7 0 45 c0 54 -17
73 -65 73 -58 0 -65 -15 -65 -129 0 -61 -4 -101 -10 -101 -5 0 -10 5 -10 10 0
6 -16 10 -35 10 -19 0 -35 -4 -35 -10 0 -5 -7 -10 -15 -10 -8 0 -15 -9 -15
-19 0 -17 -5 -18 -42 -14 -24 3 -45 8 -48 10 -3 3 -8 62 -12 131 -18 302 -18
301 -39 307 -16 5 -19 16 -19 71 l0 64 -45 0 -45 0 0 -70 c0 -40 -4 -70 -10
-70 -6 0 -10 -38 -10 -95 0 -55 -4 -95 -10 -95 -5 0 -11 -50 -12 -117 -3 -114
-4 -118 -25 -121 -19 -3 -23 -10 -23 -43 0 -28 -4 -39 -15 -39 -12 0 -15 19
-15 110 0 91 -3 110 -15 110 -12 0 -15 14 -15 63 0 40 -5 70 -16 85 -15 22
-44 30 -44 12 0 -5 -6 -10 -14 -10 -19 0 -26 -22 -26 -80 0 -55 -16 -100 -37
-100 -7 0 -13 -4 -13 -10 0 -5 -11 -10 -25 -10 -22 0 -25 -4 -25 -40 l0 -40
-40 0 c-22 0 -40 5 -40 10 0 6 -24 10 -54 10 -52 0 -55 1 -58 28 -3 26 -5 27
-58 27 -49 0 -55 -2 -61 -25 -4 -14 -7 299 -8 695 -1 804 -4 760 70 834 74 75
22 71 899 71 739 0 787 -2 825 -19z m1500 -500 c52 -23 103 -74 126 -126 18
-38 18 -84 17 -810 0 -423 -3 -759 -5 -746 -4 22 -8 23 -59 19 -43 -4 -54 -2
-54 10 0 10 -8 13 -25 10 -13 -3 -26 -1 -27 4 -5 13 -85 -9 -91 -25 -3 -6 -6
3 -6 21 l-1 34 -52 -6 c-29 -3 -70 -6 -90 -6 -21 0 -38 -4 -38 -10 0 -5 -16
-10 -35 -10 -19 0 -35 5 -35 10 0 17 -33 11 -56 -11 l-22 -20 -6 45 c-6 39
-11 45 -36 51 -33 7 -55 -2 -89 -39 -14 -14 -28 -26 -33 -26 -4 0 -8 27 -8 60
0 53 -2 60 -20 60 -18 0 -20 -7 -20 -67 0 -52 -3 -64 -12 -55 -7 7 -22 12 -35
12 -16 0 -23 6 -23 20 0 14 -7 20 -24 20 -29 0 -36 -16 -36 -84 0 -29 -4 -56
-10 -62 -5 -5 -13 -46 -17 -89 l-8 -80 -7 60 c-4 33 -10 106 -14 163 -6 95 -8
101 -24 87 -19 -17 -40 -20 -40 -5 0 6 -13 10 -30 10 -16 0 -30 -4 -30 -10 0
-5 -9 -10 -20 -10 -17 0 -20 -7 -20 -50 0 -27 -4 -50 -10 -50 -5 0 -10 7 -10
15 0 9 -12 18 -30 21 -16 4 -30 11 -30 16 0 15 -43 68 -56 68 -7 0 -14 -6 -16
-12 -6 -17 -34 11 -40 38 -2 10 -12 20 -23 22 -28 4 -55 -48 -55 -104 0 -28
-4 -44 -12 -44 -47 -2 -95 -14 -105 -27 -15 -20 -33 -8 -33 22 0 13 -11 37
-24 52 -24 28 -25 28 -40 8 -8 -11 -18 -35 -22 -53 -5 -24 -11 -32 -21 -28 -8
3 -18 6 -22 6 -10 0 -31 46 -31 69 0 22 -19 31 -61 31 -27 0 -29 -3 -30 -37
l-1 -38 -16 48 c-13 38 -20 47 -39 47 -14 0 -23 -6 -23 -15 0 -8 -4 -15 -9
-15 -5 0 -12 -8 -14 -17 -3 -10 -5 315 -6 722 -1 826 -4 780 70 854 74 75 22
71 899 71 739 0 787 -2 825 -19z m-1855 -1936 l0 -485 -627 0 c-701 0 -669 -3
-742 71 -71 70 -71 69 -71 507 l0 392 720 0 720 0 0 -485z m2000 -407 c0 -438
0 -437 -71 -507 -74 -75 -22 -71 -899 -71 -877 0 -825 -4 -899 71 -71 70 -71
69 -71 507 l0 392 970 0 970 0 0 -392z"/>
</g>
</svg>
